<svg width="50" height="9" viewBox="0 0 50 9" fill="none" xmlns="http://www.w3.org/2000/svg">
<rect width="50" height="9" fill="#F2F2F2"/>
<g id="Mobile Portrait" clip-path="url(#clip0_0_1)">
<rect width="320" height="10138" transform="translate(-135 -8948)" fill="white"/>
<g id="Testimonial " clip-path="url(#clip1_0_1)">
<g id="pagination" clip-path="url(#clip2_0_1)">
<path id="Oval 1" fill-rule="evenodd" clip-rule="evenodd" d="M5 9C7.76142 9 10 6.98528 10 4.5C10 2.01472 7.76142 0 5 0C2.23858 0 0 2.01472 0 4.5C0 6.98528 2.23858 9 5 9Z" fill="#2B4074"/>
<path id="Oval 2" fill-rule="evenodd" clip-rule="evenodd" d="M25 9C27.7614 9 30 6.98528 30 4.5C30 2.01472 27.7614 0 25 0C22.2386 0 20 2.01472 20 4.5C20 6.98528 22.2386 9 25 9Z" stroke="#476E4D"/>
<path id="Oval 3" fill-rule="evenodd" clip-rule="evenodd" d="M45 9C47.7614 9 50 6.98528 50 4.5C50 2.01472 47.7614 0 45 0C42.2386 0 40 2.01472 40 4.5C40 6.98528 42.2386 9 45 9Z" fill="#2B4074"/>
</g>
</g>
</g>
<defs>
<clipPath id="clip0_0_1">
<rect width="320" height="10138" fill="white" transform="translate(-135 -8948)"/>
</clipPath>
<clipPath id="clip1_0_1">
<rect width="321" height="421" fill="white" transform="translate(-135 -412)"/>
</clipPath>
<clipPath id="clip2_0_1">
<rect width="50" height="9" fill="white"/>
</clipPath>
</defs>
</svg>
